<?xml version="1.0" encoding="UTF-8"?>
<svg version="1.1" xmlns="http://www.w3.org/2000/svg" width="512" height="512">
<path d="M0 0 C1.92185277 1.75858032 3.88350614 3.427729 5.89453125 5.08203125 C8.94337246 7.68624979 11.54828868 10.51959889 14.13671875 13.578125 C15.72350417 15.44933422 17.33099341 17.28782897 18.96484375 19.1171875 C56.36389846 61.31254955 74.22384639 118.8226264 70.88452148 174.78198242 C67.92640285 213.24566251 55.28828412 252.78927589 32.20703125 284.01953125 C31.44003906 285.06882812 30.67304688 286.118125 29.8828125 287.19921875 C24.85321606 293.96185219 19.43065969 300.23119087 13.65234375 306.36328125 C11.19903848 308.96411128 11.19903848 308.96411128 9.09765625 311.671875 C7.43786292 313.73289936 5.84128164 315.37735049 3.83203125 317.08203125 C1.23221642 319.29259469 -1.35321298 321.51211115 -3.8984375 323.78515625 C-45.53248565 360.67714875 -101.89828163 378.48075574 -157.11206055 375.62255859 C-177.10385805 374.34055798 -196.93904213 370.92474774 -215.79296875 364.01953125 C-216.54288086 363.74802246 -217.29279297 363.47651367 -218.06542969 363.19677734 C-235.9348409 356.63257781 -253.39722696 348.30391018 -268.79296875 337.01953125 C-269.84484375 336.25125 -270.89671875 335.48296875 -271.98046875 334.69140625 C-278.73903128 329.66142997 -285.00679515 324.24111791 -291.13671875 318.46484375 C-293.73394072 316.01351182 -293.73394072 316.01351182 -296.4296875 313.9296875 C-298.59313211 312.18105211 -300.31567528 310.45047166 -302.10546875 308.33203125 C-303.89327042 306.23031151 -305.67475178 304.14557716 -307.5625 302.1328125 C-319.49741511 289.34360873 -328.86603541 274.54512475 -336.79296875 259.01953125 C-337.33195801 257.97031494 -337.33195801 257.97031494 -337.88183594 256.89990234 C-363.11478085 207.18983806 -367.89031121 147.61166748 -350.64355469 94.57128906 C-343.7518244 73.89609819 -334.8183162 53.62550187 -321.79296875 36.01953125 C-321.40931152 35.49746094 -321.0256543 34.97539062 -320.63037109 34.4375 C-315.70093238 27.76331742 -310.50803861 21.39613331 -304.87890625 15.29296875 C-302.94074325 13.18058885 -301.08273604 11.01955053 -299.23046875 8.83203125 C-295.72487149 4.82335284 -291.86145731 1.44276704 -287.79296875 -1.98046875 C-286.84550781 -2.81578125 -285.89804687 -3.65109375 -284.921875 -4.51171875 C-217.04889433 -64.01055375 -117.60412491 -70.36896264 0 0 Z " fill="#ECF2FB" transform="translate(400.79296875,95.98046875)"/>
<path d="M0 0 C1.93901688 -0.01062721 1.93901688 -0.01062721 3.91720581 -0.02146912 C5.35293614 -0.0191752 6.78866614 -0.01666548 8.22439575 -0.01396179 C9.73395032 -0.01830823 11.24350269 -0.02349115 12.75305176 -0.02944946 C16.85640954 -0.04285928 20.95967532 -0.04341585 25.06305075 -0.04088616 C28.48751988 -0.03981762 31.91197031 -0.04469692 35.33643544 -0.04949158 C43.41563952 -0.060594 51.49479711 -0.0610203 59.57400513 -0.05497742 C67.90998049 -0.04893833 76.24578703 -0.06124525 84.58173358 -0.08254749 C91.73681333 -0.10016006 98.89183934 -0.10616532 106.04693997 -0.10290974 C110.32111328 -0.10109591 114.59516622 -0.1037428 118.86931992 -0.11762428 C122.88962434 -0.13019216 126.90966563 -0.1282685 130.92996597 -0.11521339 C132.40497171 -0.11284564 133.87999589 -0.11558946 135.35498047 -0.12383652 C137.36960473 -0.13428791 139.38430381 -0.12440962 141.39892578 -0.11352539 C143.08964108 -0.113777 143.08964108 -0.113777 144.81451225 -0.1140337 C148.2595491 0.31458091 150.09332476 1.13813938 152.82644653 3.26069641 C154.67942443 6.01204148 155.07778765 8.18587578 155.08714294 11.4664917 C155.09422775 12.29776581 155.10131256 13.12903992 155.10861206 13.98550415 C155.10613464 14.88899094 155.10365723 15.79247772 155.10110474 16.7233429 C155.10621567 17.68149902 155.1113266 18.63965515 155.11659241 19.62684631 C155.13049637 22.79522441 155.12953105 25.96338518 155.12722778 29.13179016 C155.13111419 31.33370037 155.13544875 33.53560983 155.14021301 35.73751831 C155.14767691 40.35342336 155.14738264 44.96925192 155.14212036 49.5851593 C155.13632478 55.5013267 155.15325823 61.41718113 155.17646503 67.33329678 C155.19119408 71.88089835 155.19207521 76.42842441 155.18895531 80.97604561 C155.18946891 83.15734032 155.19471393 85.33863921 155.20476723 87.51991081 C155.21709836 90.56969948 155.21035972 93.61887657 155.19876099 96.6686554 C155.20640472 97.57011795 155.21404846 98.47158051 155.22192383 99.40036011 C155.18069211 104.30335329 154.7360763 107.14667552 151.82644653 111.26069641 C151.82644653 112.25069641 151.82644653 113.24069641 151.82644653 114.26069641 C152.32144653 114.67319641 152.81644653 115.08569641 153.32644653 115.51069641 C154.82644653 117.26069641 154.82644653 117.26069641 155.26394653 120.69819641 C154.82644653 124.26069641 154.82644653 124.26069641 153.20475006 126.45160675 C150.08458178 128.82500616 148.23597596 128.76357664 144.33609009 128.76863098 C143.68620983 128.77487094 143.03632957 128.78111091 142.36675596 128.78753996 C140.19084017 128.80348493 138.01604234 128.79086123 135.84011841 128.77827454 C134.27952928 128.78369504 132.71894527 128.7908173 131.15837097 128.79951477 C126.92074363 128.81775978 122.68350555 128.81067588 118.44587135 128.79799843 C114.01278249 128.78787681 109.57972712 128.79726177 105.14663696 128.80354309 C97.70179251 128.81082195 90.25710674 128.80122558 82.81228638 128.78218079 C74.20298086 128.76041153 65.59405423 128.76746274 56.9847579 128.78948641 C49.5952586 128.80763365 42.20587342 128.81020206 34.81635904 128.79973173 C30.40192866 128.79349306 25.98767641 128.79267136 21.57325745 128.80587769 C17.42316881 128.81742581 13.27356903 128.80942984 9.12353325 128.78630066 C7.59973907 128.78100796 6.07590381 128.78253699 4.55212593 128.79135132 C2.47312811 128.8022693 0.39570049 128.78859195 -1.68319702 128.76863098 C-2.84683525 128.76712288 -4.01047348 128.76561478 -5.20937347 128.76406097 C-8.82138775 128.15068392 -10.00623509 127.17128951 -12.17355347 124.26069641 C-12.80744817 119.90267033 -12.6711601 117.99155615 -10.17355347 114.32319641 C-9.51355347 113.64257141 -8.85355347 112.96194641 -8.17355347 112.26069641 C-8.82320572 111.47054642 -9.47285797 110.68039642 -10.14219666 109.86630249 C-12.95084638 105.61916751 -12.7287324 101.52808127 -12.67526245 96.57099915 C-12.68066544 95.61255096 -12.68606842 94.65410278 -12.69163513 93.66661072 C-12.70410908 90.50885327 -12.68764104 87.35200984 -12.66964722 84.19429016 C-12.66980222 81.99523877 -12.67129146 79.79618711 -12.67405701 77.59713745 C-12.67544036 72.99308668 -12.66289216 68.38934767 -12.6401062 63.78535461 C-12.61170535 57.88490068 -12.61446442 51.98496402 -12.62719631 46.0844717 C-12.63415163 41.54542626 -12.6263661 37.00650035 -12.61393929 32.46747017 C-12.60942456 30.2917686 -12.60908817 28.11605421 -12.61300468 25.94035149 C-12.61591582 22.90029979 -12.59941461 19.86096078 -12.5776062 16.82099915 C-12.58210785 15.92267868 -12.5866095 15.02435822 -12.59124756 14.09881592 C-12.53461956 9.34655502 -12.31069757 6.08714426 -9.17355347 2.26069641 C-5.64121378 -0.09419671 -4.18456482 0.00762646 0 0 Z " fill="#330D84" transform="translate(186.17355346679688,277.7393035888672)"/>
<path d="M0 0 C1.49355011 0.00406357 1.49355011 0.00406357 3.01727295 0.00820923 C19.44751697 0.07567681 35.2505609 1.07386572 51.375 4.4375 C52.26606445 4.61941895 53.15712891 4.80133789 54.07519531 4.98876953 C96.8580153 14.01818778 136.8544691 34.22486986 169.375 63.4375 C169.89529785 63.90285156 170.4155957 64.36820313 170.95166016 64.84765625 C180.92372296 73.78749637 189.999623 82.96455967 198.375 93.4375 C198.98730469 94.159375 199.59960938 94.88125 200.23046875 95.625 C224.90662643 125.08906888 241.89402549 161.66447612 250.1875 199.0625 C250.37022461 199.88218262 250.55294922 200.70186523 250.74121094 201.54638672 C254.41409805 219.30998953 255.92916736 236.94879756 255.8125 255.0625 C255.80979095 256.05820007 255.80708191 257.05390015 255.80429077 258.07977295 C255.73682319 274.51001697 254.73863428 290.3130609 251.375 306.4375 C251.19308105 307.32856445 251.01116211 308.21962891 250.82373047 309.13769531 C241.86351114 351.59263982 221.90501931 391.66406851 192.78662109 423.87451172 C191.40308646 425.40640185 190.03838124 426.95339571 188.67578125 428.50390625 C148.19506699 474.12420699 87.32991273 505.54640196 26.31054688 510.2265625 C2.8152346 511.4858646 -21.46462336 511.97489735 -44.625 507.4375 C-45.53797852 507.27121094 -46.45095703 507.10492188 -47.39160156 506.93359375 C-69.091555 502.94109806 -89.74777799 495.96767493 -109.625 486.4375 C-110.3046582 486.11813477 -110.98431641 485.79876953 -111.68457031 485.46972656 C-133.01578629 475.42130584 -151.93142567 461.93956252 -169.625 446.4375 C-170.52089844 445.65375 -171.41679687 444.87 -172.33984375 444.0625 C-181.63577685 435.81218033 -189.87766172 427.15663377 -197.625 417.4375 C-198.54152344 416.35662109 -198.54152344 416.35662109 -199.4765625 415.25390625 C-212.59837814 399.59148375 -222.80338559 381.79261482 -231.625 363.4375 C-232.24930908 362.1390918 -232.24930908 362.1390918 -232.88623047 360.81445312 C-242.77621074 339.8709655 -249.23525198 317.33344996 -252.625 294.4375 C-252.80015137 293.31939941 -252.97530273 292.20129883 -253.15576172 291.04931641 C-254.81424448 279.43106028 -255.02374605 267.91109297 -255 256.1875 C-254.99945618 255.17548523 -254.99891235 254.16347046 -254.99835205 253.12078857 C-254.95761077 236.58862709 -254.04182284 220.663508 -250.625 204.4375 C-250.41069336 203.40625 -250.19638672 202.375 -249.97558594 201.3125 C-240.83323337 158.72803389 -220.743175 118.85288011 -191.625 86.4375 C-191.15964844 85.91720215 -190.69429687 85.3969043 -190.21484375 84.86083984 C-181.27500363 74.88877704 -172.09794033 65.812877 -161.625 57.4375 C-160.903125 56.82519531 -160.18125 56.21289062 -159.4375 55.58203125 C-150.44518036 48.05096355 -140.47932776 41.76710105 -130.625 35.4375 C-129.99078125 35.02967285 -129.3565625 34.6218457 -128.703125 34.20166016 C-106.90578908 20.41917409 -81.07541347 11.20737243 -56 5.625 C-54.76999268 5.35067139 -54.76999268 5.35067139 -53.51513672 5.07080078 C-35.75121042 1.39983838 -18.11378563 -0.1166679 0 0 Z M-42.625 12.4375 C-43.64625977 12.63617676 -44.66751953 12.83485352 -45.71972656 13.03955078 C-85.24554778 20.95064094 -121.00434307 37.52857709 -152.625 62.4375 C-153.43735107 63.07196045 -153.43735107 63.07196045 -154.26611328 63.71923828 C-169.56215824 75.77782112 -184.01361425 90.00110508 -195.43798828 105.79736328 C-196.6574619 107.48235378 -197.9030705 109.14560946 -199.15234375 110.80859375 C-221.36590783 140.71836383 -235.86529124 175.88500079 -242.625 212.4375 C-242.78726074 213.27442383 -242.94952148 214.11134766 -243.11669922 214.97363281 C-248.08631913 241.59110167 -247.88403816 271.89187879 -242.625 298.4375 C-242.42632324 299.45875977 -242.22764648 300.48001953 -242.02294922 301.53222656 C-234.11185906 341.05804778 -217.53392291 376.81684307 -192.625 408.4375 C-191.99053955 409.24985107 -191.99053955 409.24985107 -191.34326172 410.07861328 C-179.28467888 425.37465824 -165.06139492 439.82611425 -149.26513672 451.25048828 C-147.58014622 452.4699619 -145.91689054 453.7155705 -144.25390625 454.96484375 C-114.2810591 477.22317867 -79.16160215 491.44707867 -42.625 498.4375 C-41.72265625 498.61539062 -40.8203125 498.79328125 -39.890625 498.9765625 C-13.38792247 503.97557525 16.94649471 503.67333595 43.375 498.4375 C44.90688965 498.13948486 44.90688965 498.13948486 46.46972656 497.83544922 C88.18257388 489.48662595 127.09358195 471.29116374 159.375 443.4375 C160.13167969 442.79167969 160.88835937 442.14585937 161.66796875 441.48046875 C174.82239873 429.95657113 187.04336442 417.55876317 197.375 403.4375 C198.22104192 402.30966154 199.06739736 401.18205819 199.9140625 400.0546875 C222.11198832 370.13481295 236.6150031 334.99155729 243.375 298.4375 C243.53726074 297.60057617 243.69952148 296.76365234 243.86669922 295.90136719 C248.84110552 269.25826223 248.59628193 239.01120246 243.375 212.4375 C243.18695801 211.44282715 242.99891602 210.4481543 242.80517578 209.42333984 C235.11840332 169.82759467 218.25214958 134.01782225 193.375 102.4375 C192.74053955 101.62514893 192.74053955 101.62514893 192.09326172 100.79638672 C180.03467888 85.50034176 165.81139492 71.04888575 150.01513672 59.62451172 C148.33014622 58.4050381 146.66689054 57.1594295 145.00390625 55.91015625 C103.37407855 24.9922708 52.42291028 8.89487225 0.75 9.125 C-0.56426971 9.12823273 -0.56426971 9.12823273 -1.90509033 9.13153076 C-15.6723269 9.18570659 -29.08500841 9.75504884 -42.625 12.4375 Z " fill="#EDF3FC" transform="translate(255.625,0.5625)"/>
<path d="M0 0 C1.03318359 -0.02449219 2.06636719 -0.04898438 3.13085938 -0.07421875 C11.85666992 -0.10737572 18.5486089 1.98742793 25.4375 7.4375 C26.06398438 7.92347656 26.69046875 8.40945312 27.3359375 8.91015625 C29.0625 10.375 29.0625 10.375 30.46875 12.00390625 C32.63925841 13.87118187 34.36476831 13.9202792 37.1875 14.25 C45.86312739 15.66923192 51.93705782 19.31283017 57.4921875 26.12109375 C66.89552978 39.6179308 66.97110005 55.89026144 64.2734375 71.73828125 C63.47321049 75.81804905 62.52813828 79.86264578 61.58837891 83.91210938 C60.49789473 89.01926088 59.81370235 94.20270342 59.10229492 99.37426758 C58.57150151 103.01337461 58.13394719 105.26782922 56.0625 108.375 C54.47087921 102.80432723 53.85575056 98.16398419 54.0625 92.375 C52.7425 92.375 51.4225 92.375 50.0625 92.375 C49.82015625 93.4371875 49.5778125 94.499375 49.328125 95.59375 C45.01418297 114.00033776 45.01418297 114.00033776 39.984375 118.046875 C36.00127486 119.85737507 32.57538304 119.85178919 28.25 119.8125 C27.48107422 119.83248047 26.71214844 119.85246094 25.91992188 119.87304688 C18.71074397 119.86696318 13.07639725 117.59927923 7.9375 112.5 C3.72506354 107.23445443 1.49815822 100.60233893 -0.9375 94.375 C-3.37477655 94.43803324 -3.37477655 94.43803324 -5.9375 95.375 C-7.42687817 97.85409142 -7.42687817 97.85409142 -8.375 100.9375 C-11.49905326 109.09690618 -14.76365411 114.96852222 -22.91015625 118.68359375 C-29.75913444 121.01937244 -37.51154055 121.55851327 -44.375 119.1875 C-50.85074298 114.60709643 -52.72166072 108.67992015 -54.5 101.25 C-55.22515051 98.23668025 -55.95712813 95.31611561 -56.9375 92.375 C-58.2575 92.375 -59.5775 92.375 -60.9375 92.375 C-60.92589844 93.59316406 -60.91429687 94.81132812 -60.90234375 96.06640625 C-60.89295822 97.69010262 -60.88385884 99.31380067 -60.875 100.9375 C-60.86662109 101.73736328 -60.85824219 102.53722656 -60.84960938 103.36132812 C-60.83007753 108.14663104 -61.13312982 112.65645051 -61.9375 117.375 C-64.89588727 114.41661273 -64.95872403 110.79405774 -65.6875 106.8125 C-67.15594199 99.26123349 -69.17450153 92.16846355 -71.91894531 84.98413086 C-76.28028144 73.49937384 -77.33583413 57.12303589 -72.90234375 45.45703125 C-72.58394531 44.76996094 -72.26554688 44.08289063 -71.9375 43.375 C-71.60878906 42.63636719 -71.28007812 41.89773437 -70.94140625 41.13671875 C-67.69449436 34.63165998 -63.0001388 29.52968678 -57.9375 24.375 C-57.27105469 23.6840625 -56.60460937 22.993125 -55.91796875 22.28125 C-41.25940938 8.15521955 -20.12401367 0.02501431 0 0 Z " fill="#350F84" transform="translate(260.9375,84.625)"/>
<path d="M0 0 C0.99 0.33 1.98 0.66 3 1 C6.17812417 8.68046673 7.48817287 16.86186674 9 25 C10.14850697 20.26120232 10.32901557 15.53708638 10.5625 10.6875 C10.60568359 9.85154297 10.64886719 9.01558594 10.69335938 8.15429688 C10.79885307 6.10303065 10.89987315 4.0515352 11 2 C12.32 2 13.64 2 15 2 C17.80343772 5.54222601 18.60736788 9.05997098 19.4375 13.4375 C20.86476173 19.94846203 22.03994584 23.83410672 27.5625 27.875 C35.62040286 30.51213185 44.32458599 29.49765702 52 26 C54.96050874 23.70800597 54.96050874 23.70800597 57 21 C57.4846875 20.41347656 57.969375 19.82695312 58.46875 19.22265625 C60.30230492 16.56119515 61.38412316 13.88189262 62.5625 10.875 C64.78269618 5.21730382 64.78269618 5.21730382 67 3 C69.4140625 2.89453125 69.4140625 2.89453125 72 4 C73.35995923 6.59710275 74.38493144 8.95592314 75.375 11.6875 C78.31042894 19.06092144 80.83775775 23.31563403 88.1484375 27.1171875 C92.1286593 28.34942055 95.85846783 28.2903396 100 28.25 C100.7940625 28.25773437 101.588125 28.26546875 102.40625 28.2734375 C108.47474608 28.27812688 108.47474608 28.27812688 114 26 C116.55897164 21.43762292 117.32934839 15.78290346 118.5 10.70703125 C119.3104815 7.31947184 120.04695564 4.92956654 122 2 C123.32 2 124.64 2 126 2 C126.99 8.435 126.99 8.435 128 15 C128.33 15 128.66 15 129 15 C129.99 10.05 130.98 5.1 132 0 C136 1 136 1 137.75 2.5625 C141.17880218 9.24866425 138.26307183 16.24649434 136.16796875 22.94921875 C135.02074944 25.94580163 133.9541396 28.44968221 132 31 C130.68 31 129.36 31 128 31 C128.10441406 32.19882813 128.10441406 32.19882813 128.2109375 33.421875 C128.74501746 44.25606848 126.11304642 51.56419468 118.8359375 59.6171875 C112.09722871 66.71105709 104.827208 73.586396 96 78 C96.14309925 84.75307686 96.14309925 84.75307686 98.8125 90.8125 C103.52675314 94.04777176 108.66407647 96.00009246 114 98 C112.49586487 100.46154785 112.49586487 100.46154785 110 103 C107.15562551 103.49460835 104.90788761 103.66564523 102.06616211 103.61523438 C101.2706041 103.62078339 100.47504608 103.6263324 99.65538025 103.63204956 C97.02875317 103.64384958 94.40384982 103.61957081 91.77734375 103.59375 C89.95178811 103.59203908 88.12623002 103.59210438 86.30067444 103.59387207 C82.47649606 103.5922187 78.6529038 103.57351605 74.82885742 103.54199219 C69.92354694 103.50228626 65.01900329 103.49794999 60.11356258 103.50545502 C56.34490414 103.50852207 52.57641858 103.49641412 48.8078022 103.47932434 C46.99887743 103.47228664 45.18993306 103.46917074 43.3809948 103.47001648 C40.85511614 103.4682218 38.3301624 103.44687014 35.80444336 103.41992188 C35.05475281 103.42285248 34.30506226 103.42578308 33.53265381 103.42880249 C28.44930175 103.34498053 28.44930175 103.34498053 26.01222229 101.47375488 C25.67818893 100.98741577 25.34415558 100.50107666 25 100 C26 97 26 97 29.08984375 95.31640625 C31.01624947 94.42035697 32.95446152 93.5549747 34.89648438 92.69335938 C38.6059495 90.96906071 38.6059495 90.96906071 41.40234375 88.07421875 C42.06348936 85.77965457 42.4150927 83.62894944 42.625 81.25 C42.69976562 80.45078125 42.77453125 79.6515625 42.8515625 78.828125 C42.90054688 78.22484375 42.94953125 77.6215625 43 77 C42.33613281 76.79503906 41.67226562 76.59007812 40.98828125 76.37890625 C27.93221053 70.35434028 14.95553985 57.41734115 9.83203125 44.0859375 C8.55469667 39.34840549 8.56943356 34.8606167 9 30 C7.02 30.33 5.04 30.66 3 31 C-2.42032688 24.44590847 -4.7317867 15.5599808 -4.40625 7.13671875 C-3.80759554 3.98802652 -2.3006027 2.15681503 0 0 Z " fill="#FDE27B" transform="translate(189,175)"/>
<path d="M0 0 C-0.01332367 1.87468712 -0.01332367 1.87468712 -0.0269165 3.7872467 C-0.10804794 15.57264773 -0.16798748 27.35799199 -0.20724869 39.14360905 C-0.22811194 45.20254734 -0.25640714 51.26125995 -0.30175781 57.32006836 C-0.34525966 63.16856031 -0.36914661 69.01683534 -0.37950897 74.86547661 C-0.38689247 77.09538626 -0.40131073 79.32528422 -0.42292023 81.55510139 C-0.45201114 84.68160666 -0.45595352 87.80721878 -0.45410156 90.93383789 C-0.46848267 91.85309555 -0.48286377 92.77235321 -0.49768066 93.71946716 C-0.45969862 99.65614366 0.62872495 103.09110188 4 108 C3.34 108.515625 2.68 109.03125 2 109.5625 C-0.30771734 111.93302698 -0.30771734 111.93302698 -0.4375 115.5 C0.0209424 119.16753923 0.72549165 120.24887053 3 123 C-22.31411823 124.07938709 -22.31411823 124.07938709 -30.80859375 116.35546875 C-36.19223268 110.63615929 -38.34099968 104.7069389 -38.30078125 96.91796875 C-37.9395095 93.41316358 -37.22516527 90.03409288 -36.51049805 86.58618164 C-35.76024288 82.78539112 -35.26014157 78.96398432 -34.75 75.125 C-34.18026106 71.08133587 -33.59150075 67.04053329 -33 63 C-32.90031921 62.31488342 -32.80063843 61.62976685 -32.69793701 60.92388916 C-32.01150076 56.22402249 -31.29818123 51.52910765 -30.55993652 46.83709717 C-30.31469626 45.2570216 -30.0764727 43.67583847 -29.8458252 42.09356689 C-27.6076685 26.8062514 -23.26204962 15.05598372 -11 5 C-3.56207675 0 -3.56207675 0 0 0 Z " fill="#5E8EF8" transform="translate(175,283)"/>
<path d="M0 0 C1.92250319 0.92560778 3.84101072 1.85951742 5.7578125 2.796875 C6.82660645 3.31604492 7.89540039 3.83521484 8.99658203 4.37011719 C17.09214536 8.76338501 22.98354334 16.7927837 25.81713867 25.51538086 C27.84972 33.78709663 29.3167658 42.11453911 30.67993164 50.51708984 C31.06089579 52.86511263 31.44873926 55.21191537 31.83789062 57.55859375 C33.17894327 65.68956041 34.43867166 73.82544008 35.56811523 81.98876953 C35.86421652 84.05327674 36.18819829 86.11392114 36.53564453 88.17041016 C38.06102557 97.46545022 38.35756916 106.07233734 32.77734375 113.9765625 C28.56640017 118.77055981 24.1979601 121.41903049 18 123 C14.37044473 123.2329049 10.76002898 123.18903168 7.125 123.125 C5.66320312 123.11146484 5.66320312 123.11146484 4.171875 123.09765625 C1.78099272 123.07421623 -0.60937261 123.04140442 -3 123 C-2.51104248 122.38866211 -2.02208496 121.77732422 -1.51831055 121.14746094 C0.28876352 118.59158001 0.32345435 117.33163198 0.1875 114.25 C0.16042969 113.45078125 0.13335937 112.6515625 0.10546875 111.828125 C0.07066406 111.22484375 0.03585937 110.6215625 0 110 C-1.32 109.34 -2.64 108.68 -4 108 C-3.34936584 107.05261459 -2.69873169 106.10522919 -2.02838135 105.12913513 C0.62434627 100.45363486 0.53656488 96.20499363 0.45410156 90.93383789 C0.45468567 89.94770508 0.45526978 88.96157227 0.45587158 87.94555664 C0.45309732 84.70422479 0.42203567 81.46382635 0.390625 78.22265625 C0.38316029 75.96822105 0.37746845 73.71377934 0.37347412 71.45933533 C0.35823603 65.5392348 0.31896947 59.61952975 0.2746582 53.69958496 C0.2336664 47.65329334 0.21545473 41.60693754 0.1953125 35.56054688 C0.15247384 23.70685795 0.08424425 11.85346192 0 0 Z " fill="#5E8EF8" transform="translate(340,283)"/>
<path d="M0 0 C0.64186202 -0.00779995 1.28372403 -0.01559991 1.94503641 -0.02363622 C4.08809329 -0.04352326 6.22936764 -0.02780761 8.37243652 -0.01205444 C9.91185032 -0.01883215 11.45125601 -0.02773615 12.99064636 -0.03860474 C17.16637512 -0.06138696 21.34148579 -0.05256651 25.51722527 -0.03670931 C29.8884535 -0.02404461 34.25962905 -0.035792 38.63085938 -0.04364014 C45.97141007 -0.05273506 53.31170919 -0.040753 60.65222168 -0.01693726 C69.13720374 0.01027384 77.62158509 0.00145956 86.1065526 -0.02606928 C93.39334773 -0.04876392 100.67996208 -0.05195874 107.96678114 -0.03887594 C112.31810826 -0.03108333 116.66915308 -0.03003446 121.02046204 -0.04655838 C125.11157645 -0.0610092 129.20191691 -0.05097109 133.29294777 -0.0220871 C134.79374214 -0.01547943 136.29460173 -0.01736864 137.7953701 -0.02840042 C139.84582108 -0.04208242 141.89379821 -0.02491531 143.9440918 0 C145.09076073 0.00188513 146.23742966 0.00377026 147.41884613 0.00571251 C151.4438525 0.83518885 152.9500169 2.45389719 155.4720459 5.63491821 C156.0345459 9.19741821 156.0345459 9.19741821 155.4720459 12.63491821 C153.30133938 15.54307324 152.12047203 16.52480522 148.50786591 17.13828278 C146.76240856 17.14054493 146.76240856 17.14054493 144.98168945 17.14285278 C144.00686906 17.15221273 144.00686906 17.15221273 143.01235533 17.16176176 C140.83643954 17.17770673 138.66164171 17.16508303 136.48571777 17.15249634 C134.92512865 17.15791684 133.36454464 17.1650391 131.80397034 17.17373657 C127.566343 17.19198159 123.32910492 17.18489768 119.09147072 17.17222023 C114.65838185 17.16209861 110.22532649 17.17148357 105.79223633 17.17776489 C98.34739188 17.18504375 90.90270611 17.17544738 83.45788574 17.15640259 C74.84858022 17.13463334 66.2396536 17.14168454 57.63035727 17.16370821 C50.24085797 17.18185545 42.85147279 17.18442386 35.46195841 17.17395353 C31.04752802 17.16771486 26.63327578 17.16689316 22.21885681 17.18009949 C18.06876817 17.19164761 13.9191684 17.18365164 9.76913261 17.16052246 C8.24533844 17.15522976 6.72150317 17.15675879 5.1977253 17.16557312 C3.11872747 17.1764911 1.04129985 17.16281376 -1.03759766 17.14285278 C-2.20123589 17.14134468 -3.36487411 17.13983658 -4.56377411 17.13828278 C-8.17638023 16.52480522 -9.35724759 15.54307324 -11.5279541 12.63491821 C-12.0904541 9.19741821 -12.0904541 9.19741821 -11.5279541 5.63491821 C-7.95677937 1.13061556 -5.70060939 0.00937182 0 0 Z " fill="#5935AF" transform="translate(185.5279541015625,389.3650817871094)"/>
<path d="M0 0 C3.92862057 1.27414721 5.90532822 2.4091341 8 6 C10.44415825 11.59934434 10.23047597 16.8872101 10.125 22.875 C10.11597656 23.84953125 10.10695313 24.8240625 10.09765625 25.828125 C10.07421623 28.21900728 10.04140442 30.60937261 10 33 C8.88665283 32.98428955 7.77330566 32.9685791 6.6262207 32.95239258 C2.43472738 32.89746048 -1.7567352 32.86342349 -5.94848633 32.83520508 C-7.75127541 32.82026084 -9.55402906 32.79989796 -11.35668945 32.77368164 C-21.00614356 32.637019 -29.94194457 32.64523018 -39.28442383 35.3137207 C-46.23685385 37.07073597 -52.84740122 36.41817821 -59.66796875 34.48828125 C-68.52167251 32.37396393 -77.272239 32.67344597 -86.3125 32.8125 C-88.03579549 32.82758674 -89.75910387 32.84126803 -91.48242188 32.85351562 C-95.65527345 32.88617627 -99.82748952 32.93773326 -104 33 C-103.13421149 29.07453169 -102.06114014 26.74717705 -99 24 C-97.06009073 24.18522921 -95.11950768 24.38454955 -93.19406128 24.68490601 C-89.78839604 25.17400112 -86.37555255 25.2016668 -82.94140625 25.23828125 C-81.82027687 25.25038887 -81.82027687 25.25038887 -80.67649841 25.26274109 C-79.10084275 25.27648165 -77.52515857 25.28724795 -75.94946289 25.29516602 C-74.37417562 25.30660566 -72.79892461 25.32692814 -71.22387695 25.35668945 C-46.55390266 25.82069338 -19.64843047 18.48639508 -1.2578125 1.25 C-0.84273438 0.8375 -0.42765625 0.425 0 0 Z " fill="#F8DC7C" transform="translate(305,136)"/>
<path d="M0 0 C2.5097406 0.94060331 4.82141045 1.89106368 7.11328125 3.2890625 C14.58892785 7.83021905 22.513787 8.31324354 31 7 C35.52242339 5.69138387 39.70672075 3.91278782 44 2 C46.32264703 1.23475702 48.63034345 0.60619121 51 0 C51.12375 0.73605469 51.2475 1.47210938 51.375 2.23046875 C52.50675437 7.98446818 52.50675437 7.98446818 55.69921875 12.73828125 C60.1323842 15.55146875 65.04637324 17.31930521 70 19 C68.49586487 21.46154785 68.49586487 21.46154785 66 24 C63.15562551 24.49460835 60.90788761 24.66564523 58.06616211 24.61523438 C57.2706041 24.62078339 56.47504608 24.6263324 55.65538025 24.63204956 C53.02875317 24.64384958 50.40384982 24.61957081 47.77734375 24.59375 C45.95178811 24.59203908 44.12623002 24.59210438 42.30067444 24.59387207 C38.47649606 24.5922187 34.6529038 24.57351605 30.82885742 24.54199219 C25.92354694 24.50228626 21.01900329 24.49794999 16.11356258 24.50545502 C12.34490414 24.50852207 8.57641858 24.49641412 4.8078022 24.47932434 C2.99887743 24.47228664 1.18993306 24.46917074 -0.6190052 24.47001648 C-3.14488386 24.4682218 -5.6698376 24.44687014 -8.19555664 24.41992188 C-8.94524719 24.42285248 -9.69493774 24.42578308 -10.46734619 24.42880249 C-15.55069825 24.34498053 -15.55069825 24.34498053 -17.98777771 22.47375488 C-18.32181107 21.98741577 -18.65584442 21.50107666 -19 21 C-18.505 19.515 -18.505 19.515 -18 18 C-16.39371993 17.23530263 -14.78096909 16.48059375 -13.13525391 15.80493164 C-8.63070588 13.94337551 -4.86231298 12.37784633 -2.18359375 8.09765625 C-1.24238502 5.39906147 -0.49836832 2.81222125 0 0 Z " fill="#FDBD1E" transform="translate(233,254)"/>
<path d="M0 0 C0.66 0 1.32 0 2 0 C2.21914062 0.70125 2.43828125 1.4025 2.6640625 2.125 C6.0263073 12.18439906 10.73190216 19.52339673 20 25 C23.27810889 26.50793009 26.5933324 27.81325104 30 29 C27.1505655 30.899623 24.42802507 32.16230883 21.3125 33.5625 C12.2924511 38.04525707 6.80888526 44.77848833 3 54 C2.5875 54.99 2.175 55.98 1.75 57 C1.5025 57.66 1.255 58.32 1 59 C0.67 59 0.34 59 0 59 C-0.22042969 58.18208984 -0.22042969 58.18208984 -0.4453125 57.34765625 C-3.47241554 47.17032706 -8.79316283 39.50129899 -18 34 C-21.60348319 32.42638589 -25.23605721 31.13270054 -29 30 C-26.52637184 28.35091456 -24.52562869 27.34485547 -21.8125 26.25 C-12.39487519 22.07627991 -5.85453233 16.10940127 -1.96484375 6.421875 C-1.24519713 4.29305989 -0.58464061 2.16932436 0 0 Z " fill="#5F8FF9" transform="translate(115,253)"/>
<path d="M0 0 C1.47823242 -0.0309375 1.47823242 -0.0309375 2.98632812 -0.0625 C8.44904975 -0.09184975 12.53238033 0.04164055 17.1875 3.25 C20.31552331 7.94203497 19.63321916 12.75511849 19.1875 18.25 C18.30454323 22.53371993 16.89258291 25.54491709 13.75 28.6875 C8.35439206 31.97750484 2.35106995 31.85611283 -3.8125 31.25 C-9.41020572 29.60084427 -13.90843585 26.3896456 -16.8125 21.25 C-19.21734182 15.5887965 -20.78227623 10.28243971 -18.8125 4.25 C-13.01536191 -0.32668797 -7.03436256 0.03637679 0 0 Z " fill="#FADD7B" transform="translate(285.8125,170.75)"/>
<path d="M0 0 C0.92103516 -0.020625 1.84207031 -0.04125 2.79101562 -0.0625 C8.83508866 -0.09681695 13.3465567 0.600596 18.8125 3.25 C21.47276357 7.24039536 21.00884699 9.61082612 20.47265625 14.2578125 C19.20260553 20.01437376 16.51985843 24.76718551 12.1640625 28.76171875 C6.10804395 32.53020191 -2.35438354 32.29065379 -9.1875 31.25 C-13.59184514 28.38233572 -16.06387707 25.40137895 -17.1875 20.25 C-18.34035619 8.04659543 -18.34035619 8.04659543 -15.34765625 3.3828125 C-11.05017797 -0.86026732 -5.67300865 0.03110628 0 0 Z " fill="#FCDF7B" transform="translate(228.1875,170.75)"/>
<path d="M0 0 C2.18325241 2.18325241 2.94184214 3.94408126 4.1875 6.75 C8.36457204 15.20156851 14.39652072 18.68346604 23 22 C22.44054687 22.27714844 21.88109375 22.55429688 21.3046875 22.83984375 C20.54414063 23.22269531 19.78359375 23.60554688 19 24 C18.21882813 24.39316406 17.43765625 24.78632813 16.6328125 25.19140625 C8.35318807 29.7181168 4.31690332 35.26241671 1 44 C-1 41 -1 41 -2.19140625 38.73046875 C-6.41380539 30.89918146 -11.28505638 26.8198028 -19.5625 23.625 C-20.7690625 23.315625 -20.7690625 23.315625 -22 23 C-21 21 -21 21 -17.4375 19.8125 C-11.20059541 17.54351858 -6.63066276 13.93361364 -3.38671875 8.09765625 C-2.16544695 5.4246191 -1.03441591 2.75015385 0 0 Z " fill="#FEBF20" transform="translate(361,139)"/>
<path d="M0 0 C2.00668875 2.00668875 2.56424873 3.19230068 3.625 5.75 C5.95701346 10.58122788 9.44269114 13.29556004 14 16 C14.99 16.33 15.98 16.66 17 17 C17 17.66 17 18.32 17 19 C15.47097374 19.93226067 13.89963386 20.79551982 12.3125 21.625 C7.08219767 24.63593783 4.70116485 27.72147369 2 33 C1.34 33.99 0.68 34.98 0 36 C-0.27972656 35.41992188 -0.55945313 34.83984375 -0.84765625 34.2421875 C-4.38255612 27.35424756 -8.12665449 22.5493382 -15.4375 19.625 C-16.7059375 19.315625 -16.7059375 19.315625 -18 19 C-16.62377001 16.24754002 -15.05734328 16.06272216 -12.25 14.875 C-6.84437426 12.27257732 -4.53922682 9.32179622 -2 4 C-1.62875 3.25878906 -1.2575 2.51757812 -0.875 1.75390625 C-0.58625 1.17511719 -0.2975 0.59632813 0 0 Z " fill="#381487" transform="translate(407,309)"/>
<path d="M0 0 C0.99 0.33 1.98 0.66 3 1 C6.61305989 9.73156139 9.38020601 20.51295492 9 30 C7.02 30.33 5.04 30.66 3 31 C-2.42032688 24.44590847 -4.7317867 15.5599808 -4.40625 7.13671875 C-3.80759554 3.98802652 -2.3006027 2.15681503 0 0 Z " fill="#FCBD22" transform="translate(189,175)"/>
<path d="M0 0 C0.66 0.99 1.32 1.98 2 3 C6.4468224 8.89073577 6.4468224 8.89073577 13 12 C12.46375 12.391875 11.9275 12.78375 11.375 13.1875 C10.59125 13.785625 9.8075 14.38375 9 15 C7.453125 16.175625 7.453125 16.175625 5.875 17.375 C3.07608208 19.93053376 2.02264753 21.42073365 1 25 C0.1646875 23.9171875 0.1646875 23.9171875 -0.6875 22.8125 C-5.53877291 16.89270986 -5.53877291 16.89270986 -12 13 C-11.443125 12.5875 -10.88625 12.175 -10.3125 11.75 C-9.549375 11.1725 -8.78625 10.595 -8 10 C-7.154375 9.401875 -6.30875 8.80375 -5.4375 8.1875 C-2.67647838 5.70966008 -1.46004309 3.38115243 0 0 Z " fill="#6392F9" transform="translate(163,243)"/>
<path d="M0 0 C2.51147981 0.53446781 3.7995277 0.82100687 5.75 2.5625 C9.17880218 9.24866425 6.26307183 16.24649434 4.16796875 22.94921875 C3.02896973 25.9243299 1.89036378 28.43348595 0 31 C-0.99 31 -1.98 31 -3 31 C-3.38339966 20.19380948 -2.5423351 10.53253112 0 0 Z " fill="#FCBE24" transform="translate(321,175)"/>
<path d="M0 0 C5.91969002 1.75990784 11.41634992 4.39694605 17 7 C17 8.65 17 10.3 17 12 C14.35535616 13.33573894 11.70937327 14.66869246 9.0625 16 C8.30775391 16.3815625 7.55300781 16.763125 6.77539062 17.15625 C6.05673828 17.5171875 5.33808594 17.878125 4.59765625 18.25 C3.93258057 18.58515625 3.26750488 18.9203125 2.58227539 19.265625 C1 20 1 20 0 20 C0 18.35 0 16.7 0 15 C2.97 13.35 5.94 11.7 9 10 C6.03 8.35 3.06 6.7 0 5 C0 3.35 0 1.7 0 0 Z " fill="#F2F0F7" transform="translate(271,324)"/>
<path d="M0 0 C0 1.65 0 3.3 0 5 C-4.95 7.475 -4.95 7.475 -10 10 C-6.7 11.65 -3.4 13.3 0 15 C0 16.65 0 18.3 0 20 C-5.91969002 18.24009216 -11.41634992 15.60305395 -17 13 C-17 11.02 -17 9.04 -17 7 C-14.54379149 5.82866942 -12.08525083 4.66278278 -9.625 3.5 C-8.92632812 3.16613281 -8.22765625 2.83226562 -7.5078125 2.48828125 C-2.2265625 0 -2.2265625 0 0 0 Z " fill="#F1EEF6" transform="translate(245,324)"/>
<path d="M0 0 C1.65 0 3.3 0 5 0 C2.97291727 6.30174814 0.37800072 12.27048578 -2.3125 18.3125 C-2.78623047 19.42173828 -3.25996094 20.53097656 -3.74804688 21.67382812 C-4.21919922 22.72634766 -4.69035156 23.77886719 -5.17578125 24.86328125 C-5.59770752 25.82532471 -6.01963379 26.78736816 -6.4543457 27.77856445 C-8 30 -8 30 -10.67651367 30.82104492 C-11.44326416 30.8801001 -12.21001465 30.93915527 -13 31 C-12.36198493 26.91075314 -11.02839818 23.56594559 -9.27734375 19.82421875 C-8.47006836 18.08881836 -8.47006836 18.08881836 -7.64648438 16.31835938 C-7.07694064 15.10801751 -6.50727769 13.89773174 -5.9375 12.6875 C-5.36343439 11.45791463 -4.7898615 10.22809909 -4.21679688 8.99804688 C-2.81602767 5.99639857 -1.41027491 2.99719095 0 0 Z " fill="#F3F1F7" transform="translate(262,320)"/>
<path d="M0 0 C0.99 1.32 1.98 2.64 3 4 C-3.93 4 -10.86 4 -18 4 C-12.1175108 1.0587554 -6.63288183 -0.76533252 0 0 Z " fill="#6591F6" transform="translate(214,274)"/>
<path d="M0 0 C2.48828125 -0.2421875 2.48828125 -0.2421875 5.3125 0.125 C6.28445313 0.25003906 7.25640625 0.37507813 8.2578125 0.50390625 C11.3029066 1.05479934 14.1307636 1.83679606 17 3 C17 3.33 17 3.66 17 4 C10.4 4 3.8 4 -3 4 C-2.01 2.68 -1.02 1.36 0 0 Z " fill="#6792F5" transform="translate(302,274)"/>
<path d="M0 0 C0.66 0.33 1.32 0.66 2 1 C2 1.66 2 2.32 2 3 C-5.15533979 5.60758587 -11.40237976 6.38999191 -19 6 C-17.228335 3.77055579 -16.32879134 3.05751304 -13.4765625 2.55859375 C-12.53554687 2.51863281 -11.59453125 2.47867188 -10.625 2.4375 C-6.60039175 2.25456326 -3.72212092 1.49012745 0 0 Z " fill="#633F81" transform="translate(239,199)"/>
<path d="M0 0 C0.66 0.33 1.32 0.66 2 1 C2 1.66 2 2.32 2 3 C-0.31 3.66 -2.62 4.32 -5 5 C-5 4.01 -5 3.02 -5 2 C-2.625 0.9375 -2.625 0.9375 0 0 Z " fill="#522E82" transform="translate(239,199)"/>
</svg>
